<?xml version="1.0" encoding="UTF-8" standalone="no"?>
<!DOCTYPE svg PUBLIC "-//W3C//DTD SVG 1.1//EN" "http://www.w3.org/Graphics/SVG/1.1/DTD/svg11.dtd">
<svg version="1.1" xmlns="http://www.w3.org/2000/svg" xmlns:xlink="http://www.w3.org/1999/xlink" preserveAspectRatio="xMidYMid meet" viewBox="0 0 640 640" width="640" height="640"><defs><path d="M550.73 580.67C550.73 613.38 524.11 640 491.4 640C456.15 640 174.12 640 138.87 640C120.7 640 105.91 625.22 105.91 607.06C105.91 601.76 105.91 559.38 105.91 554.09C96.35 551.48 89.27 542.75 89.27 532.38C89.27 526.36 91.61 520.7 95.86 516.45C98.7 513.62 102.15 511.66 105.91 510.65C105.91 507.33 105.91 480.74 105.91 477.42C96.35 474.83 89.27 466.1 89.27 455.71C89.27 449.7 91.61 444.04 95.86 439.79C98.7 436.97 102.15 435.01 105.91 433.99C105.91 430.66 105.91 404.07 105.91 400.75C96.35 398.16 89.27 389.43 89.27 379.06C89.27 373.04 91.61 367.38 95.86 363.13C98.7 360.3 102.15 358.34 105.91 357.33C105.91 354.01 105.91 327.42 105.91 324.1C96.35 321.5 89.27 312.78 89.27 302.39C89.27 296.37 91.61 290.72 95.86 286.47C98.7 283.65 102.15 281.67 105.91 280.67C105.91 277.34 105.91 250.75 105.91 247.43C96.35 244.84 89.27 236.11 89.27 225.74C89.27 219.72 91.61 214.06 95.86 209.81C98.7 206.98 102.15 205.02 105.91 204.01C105.91 200.69 105.91 174.1 105.91 170.78C96.35 168.18 89.27 159.44 89.27 149.07C89.27 143.05 91.61 137.4 95.86 133.15C98.7 130.31 102.15 128.35 105.91 127.35C105.91 124.02 105.91 97.43 105.91 94.11C96.35 91.52 89.27 82.79 89.27 72.4C89.27 66.4 91.61 60.73 95.86 56.48C98.7 53.66 102.15 51.7 105.91 50.68C105.91 48.91 105.91 34.73 105.91 32.96C105.91 14.78 120.7 0 138.86 0C174.11 0 456.14 0 491.4 0C524.12 0 550.73 26.62 550.73 59.33C550.73 163.6 550.73 528.54 550.73 580.67ZM537.58 565.11C530.87 573.41 522 579.88 511.81 583.64C511.81 585.49 511.81 594.72 511.81 611.35L129.39 611.35C129.39 598.34 129.39 591.12 129.39 589.67C123.24 593.03 119.06 599.56 119.06 607.06C119.06 617.97 127.94 626.85 138.87 626.85C174.12 626.85 456.15 626.85 491.4 626.85C516.86 626.85 537.58 606.14 537.58 580.67C537.58 577.56 537.58 566.67 537.58 565.11ZM537.58 503.33C537.58 236.93 537.58 88.93 537.58 59.33C537.58 33.86 516.86 13.15 491.4 13.15C456.14 13.15 174.11 13.15 138.86 13.15C127.94 13.15 119.06 22.03 119.06 32.96C119.06 34.09 119.06 39.73 119.06 49.89C129 49.89 134.52 49.89 135.63 49.89C138.54 39.05 148.43 31.03 160.17 31.03C174.21 31.03 185.62 42.44 185.62 56.46C185.62 70.5 174.21 81.91 160.17 81.91C148.43 81.91 138.54 73.89 135.63 63.04C134.52 63.04 129 63.04 119.06 63.04L119.06 126.56C129 126.56 134.52 126.56 135.63 126.56C138.54 115.7 148.43 107.7 160.17 107.7C174.21 107.7 185.62 119.11 185.62 133.13C185.62 147.16 174.21 158.58 160.17 158.58C148.43 158.58 138.54 150.54 135.63 139.7C134.52 139.7 129 139.7 119.06 139.7L119.06 203.21C129 203.21 134.52 203.21 135.63 203.21C138.54 192.37 148.43 184.35 160.17 184.35C174.21 184.35 185.62 195.76 185.62 209.8C185.62 223.82 174.21 235.23 160.17 235.23C148.43 235.23 138.54 227.21 135.63 216.36C134.52 216.36 129 216.36 119.06 216.36L119.06 279.88C129 279.88 134.52 279.88 135.63 279.88C138.54 269.04 148.43 261.02 160.17 261.02C174.21 261.02 185.62 272.43 185.62 286.45C185.62 300.49 174.21 311.9 160.17 311.9C148.43 311.9 138.54 303.88 135.63 293.02C134.52 293.02 129 293.02 119.06 293.02L119.06 356.53C129 356.53 134.52 356.53 135.63 356.53C138.54 345.69 148.43 337.67 160.17 337.67C174.21 337.67 185.62 349.09 185.62 363.12C185.62 377.14 174.21 388.55 160.17 388.55C148.43 388.55 138.54 380.53 135.63 369.68C134.52 369.68 129 369.68 119.06 369.68L119.06 433.2C129 433.2 134.52 433.2 135.63 433.2C138.54 422.36 148.43 414.34 160.17 414.34C174.21 414.34 185.62 425.75 185.62 439.77C185.62 453.81 174.21 465.22 160.17 465.22C148.43 465.22 138.54 457.2 135.63 446.34C134.52 446.34 129 446.34 119.06 446.34L119.06 509.86C129 509.86 134.52 509.86 135.63 509.86C138.54 499.01 148.43 490.99 160.17 490.99C174.21 490.99 185.62 502.41 185.62 516.44C185.62 530.46 174.21 541.89 160.17 541.89C148.43 541.89 138.54 533.85 135.63 523.01C134.52 523.01 129 523.01 119.06 523.01C119.06 557.64 119.06 576.88 119.06 580.73C124.57 576.57 131.44 574.1 138.87 574.1C141.04 574.1 151.91 574.1 171.46 574.1C363.42 574.1 470.07 574.1 491.4 574.1C516.8 574.1 537.49 553.47 537.58 528.1C537.58 524.79 537.58 516.54 537.58 503.33ZM498.66 586.79C496.28 587.09 493.87 587.25 491.4 587.25C468.18 587.25 352.07 587.25 143.06 587.25L142.54 587.25L142.54 598.2L498.66 598.2C498.66 591.36 498.66 587.56 498.66 586.79ZM172.47 56.46C172.47 49.68 166.95 44.18 160.17 44.18C155.82 44.18 151.99 46.46 149.81 49.89C150.07 49.89 152.08 49.89 152.33 49.89C160.42 49.89 167.59 53.94 171.92 60.14C172.27 58.98 172.47 57.75 172.47 56.46ZM172.47 133.13C172.47 126.35 166.95 120.84 160.17 120.84C155.82 120.84 151.99 123.12 149.81 126.56C150.07 126.56 152.08 126.56 152.33 126.56C160.42 126.56 167.59 130.59 171.92 136.8C172.27 135.64 172.47 134.4 172.47 133.13ZM172.47 209.8C172.47 203.02 166.95 197.5 160.17 197.5C155.82 197.5 151.99 199.79 149.81 203.21C150.07 203.21 152.08 203.21 152.33 203.21C160.42 203.21 167.59 207.26 171.92 213.46C172.27 212.3 172.47 211.07 172.47 209.8ZM172.47 286.45C172.47 279.67 166.95 274.16 160.17 274.16C155.82 274.16 151.99 276.44 149.81 279.88C150.07 279.88 152.08 279.88 152.33 279.88C160.42 279.88 167.59 283.92 171.92 290.12C172.27 288.96 172.47 287.74 172.47 286.45ZM172.47 363.12C172.47 356.34 166.95 350.82 160.17 350.82C155.82 350.82 151.99 353.11 149.81 356.53C150.07 356.53 152.08 356.53 152.33 356.53C160.42 356.53 167.59 360.58 171.92 366.78C172.27 365.63 172.47 364.39 172.47 363.12ZM172.47 439.77C172.47 432.99 166.95 427.48 160.17 427.48C155.82 427.48 151.99 429.76 149.81 433.2C150.07 433.2 152.08 433.2 152.33 433.2C160.42 433.2 167.59 437.24 171.92 443.44C172.27 442.28 172.47 441.06 172.47 439.77ZM172.47 516.44C172.47 509.66 166.95 504.14 160.17 504.14C155.82 504.14 151.99 506.43 149.81 509.86C150.07 509.86 152.08 509.86 152.33 509.86C160.42 509.86 167.59 513.9 171.92 520.11C172.27 518.95 172.47 517.71 172.47 516.44ZM161.75 68.65C159.92 65.3 156.39 63.04 152.33 63.04C152.07 63.04 150.05 63.04 149.8 63.04C151.99 66.47 155.82 68.76 160.17 68.76C160.71 68.76 161.22 68.72 161.75 68.65ZM161.75 145.31C159.92 141.97 156.39 139.7 152.33 139.7C152.07 139.7 150.05 139.7 149.8 139.7C151.99 143.14 155.82 145.43 160.17 145.43C160.71 145.43 161.22 145.39 161.75 145.31ZM161.75 221.98C159.92 218.62 156.39 216.36 152.33 216.36C152.07 216.36 150.05 216.36 149.8 216.36C151.99 219.79 155.82 222.08 160.17 222.08C160.71 222.08 161.22 222.04 161.75 221.98ZM161.75 298.63C159.92 295.29 156.39 293.02 152.33 293.02C152.07 293.02 150.05 293.02 149.8 293.02C151.99 296.46 155.82 298.75 160.17 298.75C160.71 298.75 161.22 298.71 161.75 298.63ZM161.75 375.3C159.92 371.94 156.39 369.68 152.33 369.68C152.07 369.68 150.05 369.68 149.8 369.68C151.99 373.13 155.82 375.4 160.17 375.4C160.71 375.4 161.22 375.36 161.75 375.3ZM161.75 451.95C159.92 448.61 156.39 446.34 152.33 446.34C152.07 446.34 150.05 446.34 149.8 446.34C151.99 449.78 155.82 452.07 160.17 452.07C160.71 452.07 161.22 452.03 161.75 451.95ZM161.75 528.62C159.92 525.28 156.39 523.01 152.33 523.01C152.07 523.01 150.05 523.01 149.8 523.01C151.99 526.45 155.82 528.74 160.17 528.74C160.71 528.74 161.22 528.68 161.75 528.62ZM105.91 525.09C105.65 525.29 105.4 525.51 105.17 525.74C103.4 527.51 102.42 529.88 102.42 532.38C102.42 535.31 103.78 537.94 105.91 539.65C105.91 536.74 105.91 526.54 105.91 525.09ZM105.91 448.42C105.65 448.62 105.4 448.86 105.17 449.09C103.4 450.86 102.42 453.21 102.42 455.71C102.42 458.66 103.78 461.28 105.91 463C105.91 460.08 105.91 449.88 105.91 448.42ZM105.91 371.75C105.65 371.97 105.4 372.19 105.17 372.42C103.4 374.19 102.42 376.54 102.42 379.06C102.42 381.99 103.78 384.61 105.91 386.33C105.91 383.42 105.91 373.21 105.91 371.75ZM105.91 295.1C105.65 295.3 105.4 295.52 105.17 295.77C103.4 297.54 102.42 299.89 102.42 302.39C102.42 305.33 103.78 307.95 105.91 309.66C105.91 306.75 105.91 296.56 105.91 295.1ZM105.91 218.43C105.65 218.65 105.4 218.87 105.17 219.1C103.4 220.87 102.42 223.22 102.42 225.74C102.42 228.67 103.78 231.29 105.91 233.01C105.91 230.1 105.91 219.89 105.91 218.43ZM105.91 141.78C105.65 141.98 105.4 142.2 105.17 142.44C103.4 144.22 102.42 146.57 102.42 149.07C102.42 152.01 103.78 154.63 105.91 156.34C105.91 153.43 105.91 143.24 105.91 141.78ZM105.91 65.11C105.65 65.32 105.4 65.55 105.17 65.78C103.4 67.55 102.42 69.9 102.42 72.4C102.42 75.35 103.78 77.97 105.91 79.69C105.91 76.78 105.91 66.57 105.91 65.11Z" id="e19dGvyznW"></path><path d="M537.58 580.67C537.58 606.14 516.86 626.85 491.4 626.85C456.15 626.85 174.12 626.85 138.87 626.85C127.94 626.85 119.06 617.97 119.06 607.06C119.06 599.56 123.24 593.03 129.39 589.67C129.39 591.12 129.39 598.34 129.39 611.35L511.81 611.35C511.81 594.72 511.81 585.49 511.81 583.64C522 579.88 530.87 573.41 537.58 565.11C537.58 568.23 537.58 579.12 537.58 580.67Z" id="b108zh85ki"></path><path d="M537.58 528.1C537.49 553.47 516.8 574.1 491.4 574.1C470.07 574.1 363.42 574.1 171.46 574.1C151.91 574.1 141.04 574.1 138.87 574.1C131.44 574.1 124.57 576.57 119.06 580.73C119.06 576.88 119.06 557.64 119.06 523.01C129 523.01 134.52 523.01 135.63 523.01C138.54 533.85 148.43 541.89 160.17 541.89C174.21 541.89 185.62 530.46 185.62 516.44C185.62 502.41 174.21 490.99 160.17 490.99C148.43 490.99 138.54 499.01 135.63 509.86C134.52 509.86 129 509.86 119.06 509.86L119.06 446.34C129 446.34 134.52 446.34 135.63 446.34C138.54 457.2 148.43 465.22 160.17 465.22C174.21 465.22 185.62 453.81 185.62 439.77C185.62 425.75 174.21 414.34 160.17 414.34C148.43 414.34 138.54 422.36 135.63 433.2C134.52 433.2 129 433.2 119.06 433.2L119.06 369.68C129 369.68 134.52 369.68 135.63 369.68C138.54 380.53 148.43 388.55 160.17 388.55C174.21 388.55 185.62 377.14 185.62 363.12C185.62 349.09 174.21 337.67 160.17 337.67C148.43 337.67 138.54 345.69 135.63 356.53C134.52 356.53 129 356.53 119.06 356.53L119.06 293.02C129 293.02 134.52 293.02 135.63 293.02C138.54 303.88 148.43 311.9 160.17 311.9C174.21 311.9 185.62 300.49 185.62 286.45C185.62 272.43 174.21 261.02 160.17 261.02C148.43 261.02 138.54 269.04 135.63 279.88C134.52 279.88 129 279.88 119.06 279.88L119.06 216.36C129 216.36 134.52 216.36 135.63 216.36C138.54 227.21 148.43 235.23 160.17 235.23C174.21 235.23 185.62 223.82 185.62 209.8C185.62 195.76 174.21 184.35 160.17 184.35C148.43 184.35 138.54 192.37 135.63 203.21C134.52 203.21 129 203.21 119.06 203.21L119.06 139.7C129 139.7 134.52 139.7 135.63 139.7C138.54 150.54 148.43 158.58 160.17 158.58C174.21 158.58 185.62 147.16 185.62 133.13C185.62 119.11 174.21 107.7 160.17 107.7C148.43 107.7 138.54 115.7 135.63 126.56C134.52 126.56 129 126.56 119.06 126.56L119.06 63.04C129 63.04 134.52 63.04 135.63 63.04C138.54 73.89 148.43 81.91 160.17 81.91C174.21 81.91 185.62 70.5 185.62 56.46C185.62 42.44 174.21 31.03 160.17 31.03C148.43 31.03 138.54 39.05 135.63 49.89C134.52 49.89 129 49.89 119.06 49.89C119.06 39.73 119.06 34.09 119.06 32.96C119.06 22.03 127.94 13.15 138.86 13.15C174.11 13.15 456.14 13.15 491.4 13.15C516.86 13.15 537.58 33.86 537.58 59.33C537.58 88.93 537.58 236.93 537.58 503.33C537.58 518.19 537.58 526.45 537.58 528.1ZM445.38 224.87L258.71 224.87L258.71 238.02L445.38 238.02L445.38 224.87ZM445.38 177.7L258.71 177.7L258.71 190.85L445.38 190.85L445.38 177.7ZM445.38 130.53L258.71 130.53L258.71 143.68L445.38 143.68L445.38 130.53Z" id="dbycFq3Rc"></path><path d="M498.66 598.2L142.54 598.2L142.54 587.25L143.06 587.25C352.07 587.25 468.18 587.25 491.4 587.25C493.87 587.25 496.28 587.09 498.66 586.79C498.66 588.32 498.66 592.12 498.66 598.2Z" id="a15ytqPi7W"></path><path d="M171.92 60.14C167.59 53.94 160.42 49.89 152.33 49.89C152.08 49.89 150.07 49.89 149.81 49.89C151.99 46.46 155.82 44.18 160.17 44.18C166.95 44.18 172.47 49.68 172.47 56.46C172.47 57.75 172.27 58.98 171.92 60.14Z" id="a2X8BzLDL"></path><path d="M171.92 136.8C167.59 130.59 160.42 126.56 152.33 126.56C152.08 126.56 150.07 126.56 149.81 126.56C151.99 123.12 155.82 120.84 160.17 120.84C166.95 120.84 172.47 126.35 172.47 133.13C172.47 134.4 172.27 135.64 171.92 136.8Z" id="a1icqWWIY2"></path><path d="M171.92 213.46C167.59 207.26 160.42 203.21 152.33 203.21C152.08 203.21 150.07 203.21 149.81 203.21C151.99 199.79 155.82 197.5 160.17 197.5C166.95 197.5 172.47 203.02 172.47 209.8C172.47 211.07 172.27 212.3 171.92 213.46Z" id="a6h6kg5Bi"></path><path d="M171.92 290.12C167.59 283.92 160.42 279.88 152.33 279.88C152.08 279.88 150.07 279.88 149.81 279.88C151.99 276.44 155.82 274.16 160.17 274.16C166.95 274.16 172.47 279.67 172.47 286.45C172.47 287.74 172.27 288.96 171.92 290.12Z" id="a54WGSbqs6"></path><path d="M171.92 366.78C167.59 360.58 160.42 356.53 152.33 356.53C152.08 356.53 150.07 356.53 149.81 356.53C151.99 353.11 155.82 350.82 160.17 350.82C166.95 350.82 172.47 356.34 172.47 363.12C172.47 364.39 172.27 365.63 171.92 366.78Z" id="j1OduPkRe"></path><path d="M171.92 443.44C167.59 437.24 160.42 433.2 152.33 433.2C152.08 433.2 150.07 433.2 149.81 433.2C151.99 429.76 155.82 427.48 160.17 427.48C166.95 427.48 172.47 432.99 172.47 439.77C172.47 441.06 172.27 442.28 171.92 443.44Z" id="a7g35gLu"></path><path d="M171.92 520.11C167.59 513.9 160.42 509.86 152.33 509.86C152.08 509.86 150.07 509.86 149.81 509.86C151.99 506.43 155.82 504.14 160.17 504.14C166.95 504.14 172.47 509.66 172.47 516.44C172.47 517.71 172.27 518.95 171.92 520.11Z" id="a21CMZch3b"></path><path d="M160.17 68.76C155.82 68.76 151.99 66.47 149.8 63.04C150.05 63.04 152.07 63.04 152.33 63.04C156.39 63.04 159.92 65.3 161.75 68.65C161.22 68.72 160.71 68.76 160.17 68.76Z" id="dGiadPBA"></path><path d="M160.17 145.43C155.82 145.43 151.99 143.14 149.8 139.7C150.05 139.7 152.07 139.7 152.33 139.7C156.39 139.7 159.92 141.97 161.75 145.31C161.22 145.39 160.71 145.43 160.17 145.43Z" id="a9sCwqRFr"></path><path d="M160.17 222.08C155.82 222.08 151.99 219.79 149.8 216.36C150.05 216.36 152.07 216.36 152.33 216.36C156.39 216.36 159.92 218.62 161.75 221.98C161.22 222.04 160.71 222.08 160.17 222.08Z" id="a3BvTnXbT"></path><path d="M160.17 298.75C155.82 298.75 151.99 296.46 149.8 293.02C150.05 293.02 152.07 293.02 152.33 293.02C156.39 293.02 159.92 295.29 161.75 298.63C161.22 298.71 160.71 298.75 160.17 298.75Z" id="aDhyLODRs"></path><path d="M160.17 375.4C155.82 375.4 151.99 373.13 149.8 369.68C150.05 369.68 152.07 369.68 152.33 369.68C156.39 369.68 159.92 371.94 161.75 375.3C161.22 375.36 160.71 375.4 160.17 375.4Z" id="kr1zTg9nX"></path><path d="M160.17 452.07C155.82 452.07 151.99 449.78 149.8 446.34C150.05 446.34 152.07 446.34 152.33 446.34C156.39 446.34 159.92 448.61 161.75 451.95C161.22 452.03 160.71 452.07 160.17 452.07Z" id="i6mXnFnvE"></path><path d="M160.17 528.74C155.82 528.74 151.99 526.45 149.8 523.01C150.05 523.01 152.07 523.01 152.33 523.01C156.39 523.01 159.92 525.28 161.75 528.62C161.22 528.68 160.71 528.74 160.17 528.74Z" id="d7ak9C94h"></path><path d="M240.74 116.11L464.73 116.11L464.73 266.59L240.74 266.59L240.74 116.11Z" id="jT8MVP6G"></path></defs><g><g><g><use xlink:href="#e19dGvyznW" opacity="1" fill="#000000" fill-opacity="1"></use><g><use xlink:href="#e19dGvyznW" opacity="1" fill-opacity="0" stroke="#000000" stroke-width="1" stroke-opacity="0"></use></g></g><g><use xlink:href="#b108zh85ki" opacity="1" fill="#5b5dee" fill-opacity="1"></use><g><use xlink:href="#b108zh85ki" opacity="1" fill-opacity="0" stroke="#000000" stroke-width="1" stroke-opacity="0"></use></g></g><g><use xlink:href="#dbycFq3Rc" opacity="1" fill="#5b5dee" fill-opacity="1"></use><g><use xlink:href="#dbycFq3Rc" opacity="1" fill-opacity="0" stroke="#000000" stroke-width="1" stroke-opacity="0"></use></g></g><g><use xlink:href="#a15ytqPi7W" opacity="1" fill="#ffcc73" fill-opacity="1"></use><g><use xlink:href="#a15ytqPi7W" opacity="1" fill-opacity="0" stroke="#000000" stroke-width="1" stroke-opacity="0"></use></g></g><g><use xlink:href="#a2X8BzLDL" opacity="1" fill="#ffcc73" fill-opacity="1"></use><g><use xlink:href="#a2X8BzLDL" opacity="1" fill-opacity="0" stroke="#000000" stroke-width="1" stroke-opacity="0"></use></g></g><g><use xlink:href="#a1icqWWIY2" opacity="1" fill="#ffcc73" fill-opacity="1"></use><g><use xlink:href="#a1icqWWIY2" opacity="1" fill-opacity="0" stroke="#000000" stroke-width="1" stroke-opacity="0"></use></g></g><g><use xlink:href="#a6h6kg5Bi" opacity="1" fill="#ffcc73" fill-opacity="1"></use><g><use xlink:href="#a6h6kg5Bi" opacity="1" fill-opacity="0" stroke="#000000" stroke-width="1" stroke-opacity="0"></use></g></g><g><use xlink:href="#a54WGSbqs6" opacity="1" fill="#ffcc73" fill-opacity="1"></use><g><use xlink:href="#a54WGSbqs6" opacity="1" fill-opacity="0" stroke="#000000" stroke-width="1" stroke-opacity="0"></use></g></g><g><use xlink:href="#j1OduPkRe" opacity="1" fill="#ffcc73" fill-opacity="1"></use><g><use xlink:href="#j1OduPkRe" opacity="1" fill-opacity="0" stroke="#000000" stroke-width="1" stroke-opacity="0"></use></g></g><g><use xlink:href="#a7g35gLu" opacity="1" fill="#ffcc73" fill-opacity="1"></use><g><use xlink:href="#a7g35gLu" opacity="1" fill-opacity="0" stroke="#000000" stroke-width="1" stroke-opacity="0"></use></g></g><g><use xlink:href="#a21CMZch3b" opacity="1" fill="#ffcc73" fill-opacity="1"></use><g><use xlink:href="#a21CMZch3b" opacity="1" fill-opacity="0" stroke="#000000" stroke-width="1" stroke-opacity="0"></use></g></g><g><use xlink:href="#dGiadPBA" opacity="1" fill="#ffcc73" fill-opacity="1"></use><g><use xlink:href="#dGiadPBA" opacity="1" fill-opacity="0" stroke="#000000" stroke-width="1" stroke-opacity="0"></use></g></g><g><use xlink:href="#a9sCwqRFr" opacity="1" fill="#ffcc73" fill-opacity="1"></use><g><use xlink:href="#a9sCwqRFr" opacity="1" fill-opacity="0" stroke="#000000" stroke-width="1" stroke-opacity="0"></use></g></g><g><use xlink:href="#a3BvTnXbT" opacity="1" fill="#ffcc73" fill-opacity="1"></use><g><use xlink:href="#a3BvTnXbT" opacity="1" fill-opacity="0" stroke="#000000" stroke-width="1" stroke-opacity="0"></use></g></g><g><use xlink:href="#aDhyLODRs" opacity="1" fill="#ffcc73" fill-opacity="1"></use><g><use xlink:href="#aDhyLODRs" opacity="1" fill-opacity="0" stroke="#000000" stroke-width="1" stroke-opacity="0"></use></g></g><g><use xlink:href="#kr1zTg9nX" opacity="1" fill="#ffcc73" fill-opacity="1"></use><g><use xlink:href="#kr1zTg9nX" opacity="1" fill-opacity="0" stroke="#000000" stroke-width="1" stroke-opacity="0"></use></g></g><g><use xlink:href="#i6mXnFnvE" opacity="1" fill="#ffcc73" fill-opacity="1"></use><g><use xlink:href="#i6mXnFnvE" opacity="1" fill-opacity="0" stroke="#000000" stroke-width="1" stroke-opacity="0"></use></g></g><g><use xlink:href="#d7ak9C94h" opacity="1" fill="#ffcc73" fill-opacity="1"></use><g><use xlink:href="#d7ak9C94h" opacity="1" fill-opacity="0" stroke="#000000" stroke-width="1" stroke-opacity="0"></use></g></g><g><use xlink:href="#jT8MVP6G" opacity="1" fill="#5b5dee" fill-opacity="1"></use></g></g></g></svg>